<?xml version="1.0" encoding="utf-8"?>
<!-- Generator: Adobe Illustrator 25.2.3, SVG Export Plug-In . SVG Version: 6.00 Build 0)  -->
<svg version="1.1" id="Layer_1" xmlns="http://www.w3.org/2000/svg" xmlns:xlink="http://www.w3.org/1999/xlink" x="0px" y="0px"
	 viewBox="0 0 717 135" enable-background="new 0 0 717 135" xml:space="preserve">
<path fill="#62C232" d="M502.1,101.8c-0.2,4.6-4.4,8.2-8.8,7s-7.7-6.4-7.5-10.7c0.2-4.4,4-7,8.3-6
	C499.1,92.8,502.1,96.9,502.1,101.8 M516.1,4.5c-5-1-13.7-0.4-18,0.2s-8.7,1.7-12.6,3.3s-4.3,2.2-4.4,3.4l-2,50.4l9.5,17.6l15,2.3
	l11.5-18.3L518,5L516.1,4.5z M495.6,73.5c-3.5-1-5.6-4.1-5.3-7.2c0-3,3-5,6-4.8s5.5,3.3,5.3,7C501.6,71.5,499.3,74,495.6,73.5"/>
<g>
	<g>
		<rect x="308.8" y="59" fill="#FFFFFF" width="13" height="47.6"/>
		<path fill="#FFFFFF" d="M468.6,109.5L468.6,109.5L468.2,59h-12v36.6c-3,0.5-4.7,0.5-8,0.5c-6,0-10-2.3-10-8.3v-28h-13v27.1
			c0,15,10,21,21,21c2.4,0,6.5,0,9-1v3c0,6-4,9-9.6,9c-6.1,0-11.3-1-15.3-4l-3.2,11c5.5,3,11.7,4.6,19.5,4.6
			C459.1,130.5,468.6,123.2,468.6,109.5z"/>
		<path fill="#FFFFFF" d="M53,88.6c0-5.8-2.6-11-9-14c5-3,7.2-7.4,7.2-12.4c0-9.9-6.5-17.4-23-17.4H5v61.8h24.2
			C46.3,106.6,53,99.2,53,88.6z M17.8,56.8L17.8,56.8l10.5-0.1c7.6,0,10.2,2.5,10.2,6.5c0,3.4-2.6,6.4-10.2,6.4H17.8V56.8z
			 M17.8,80.6L17.8,80.6L17.8,80.6h11.4c8.3,0,11,3.2,11,7.2c0,4.2-2.6,7-11,7H17.8V80.6z"/>
		<path fill="#FFFFFF" d="M627,69.8c2.4-0.4,4-0.4,7-0.4c5.5,0,9,2.4,9,8.4v29h12v-28c0-3.6-0.7-5.9-1.7-8.6c2-0.4,5-0.8,9-0.8
			c5,0,9,2.4,9,8.4v29.1h12v-27c0-14-8.6-21-20.4-21c-5.4,0-11.6,1-15.6,3c-3-3-7.7-4-12-4c-7.2,0-15.5,1.1-20.2,2.5H615v46.4h12
			V69.8z"/>
		<path fill="#FFFFFF" d="M585.1,57.8c-13,0-23,7.4-23,25v0.5c0,17.4,10,24.7,23,24.7s23-7.3,23-24.7v-0.5
			C608.1,65.2,598.1,57.8,585.1,57.8z M595.8,83.2c0,10-4.1,13-10.7,13s-10.7-3-10.7-13v-0.6c0-10,4-13,10.7-13s10.7,3,10.7,13V83.2
			z"/>
		<path fill="#FFFFFF" d="M73.6,107.9c3.4,0,5.7,0,8-1l-3.6-11h-2.6c-1.8,0-3-1.6-3-6.4V40H60v49.8C60,102.8,66,107.8,73.6,107.9z"
			/>
		<path fill="#FFFFFF" d="M104.3,107.8c7.6,0,15.4-0.8,21.4-2.5h-0.1V76c0-13.4-9-18.2-21-18.2c-7.6,0-13.6,1.4-19,3.7l3.6,11
			c3.4-1.5,8.4-3,14.4-3c5.9,0,9.7,1.1,9.7,4.5v1.6c-2.3,0.2-4.6,0.2-7,0.2c-14.6,0.4-23,5.8-23,14.8v0.6
			C83.3,102.5,93.8,107.8,104.3,107.8z M95.7,90.6c0-4.6,6.3-5.3,17.6-5.3h0.1v10.2c-2.5,0.4-5,0.7-8.7,0.7c-5,0-9-1.7-9-5V90.6z"/>
		<path fill="#FFFFFF" d="M328.6,83.4c0,16,9.3,24.4,23,24.4c3.2,0,12.9-0.5,19.2-2.5l0.2-0.1V40.8h-13v19c-2-1-4.6-2-7-2
			c-13,0-23,8-22.4,24.6L328.6,83.4L328.6,83.4z M340.8,83.3v-0.9c0-10.6,4.7-12.6,11.7-12.6c2.7,0,5,0.5,6,1v24.7
			c-2.1,0.4-3.7,0.6-6.7,0.6C344.8,96.1,340.8,93.7,340.8,83.3L340.8,83.3L340.8,83.3z"/>
		<path fill="#FFFFFF" d="M315.8,54c4.1,0,7.3-3.3,7.3-7.4s-4-7.4-8-7.4h-0.3c-4,0-7,3.4-7,7.4C307.8,50.7,311.7,54,315.8,54z"/>
		<path fill="#FFFFFF" d="M398.3,107.8c7.4,0,14.8-0.8,20.7-2.3V76.9c0-14-9-19-21-19c-7.7,0-13.5,1.4-19,3.6l4,11
			c3.6-1.5,8.6-3,14.6-3c5.7,0,9.7,1.1,9.7,4.5v1.6c-2.3,0.2-4.6,0.2-7,0.2c-14.6,0.4-23,5.8-23,14.8v0.6
			C377.3,102.5,387.8,107.8,398.3,107.8z M389.7,90.6c0-4.6,6.3-5.3,17.6-5.3h0.4v10.2c-2.5,0.4-5,0.7-9,0.7c-5,0-9-1.7-9-5V90.6z"
			/>
		<path fill="#FFFFFF" d="M202.1,81.6l18-22.6h-16c0,0-11,13.8-15.1,19v-0.1V40h-12.3v66.8H189V85.3l17.1,21.3h16L202.1,81.6z"/>
		<polygon fill="#FFFFFF" points="239.1,80.1 266.1,80.1 266.1,68.1 239.1,68.1 239.1,56.8 270.1,56.8 270.1,44.8 226.1,44.8 
			226.1,106.8 239.1,106.8 		"/>
		<path fill="#FFFFFF" d="M288.1,70.8c0.8-0.8,3-1,6.5-1s6.5,1,6.5,1l4-11c-4-1-7-2-12-2s-13,1-18,2.6v0.4v46h13V70.8z"/>
		<g>
			<path fill="#FFFFFF" d="M555.6,92.4c-3.3,2-7.4,3.1-11.2,3.1c-7.2,0-12.9-3.1-12.9-13.3c0-9.2,4.6-12.3,12-12.3
				c4.7,0,8.5,1.4,11.2,3.5c1.1-3.9,2.6-7.6,3.6-11.2c-4.2-2.4-9-4.4-15.1-4.4c-14.2,0-24.9,9.5-24.9,25.1
				c0,13.2,10.3,25.1,25.2,25.1c6.1,0,11.7-2.2,15.7-4.3C558,99.6,556.6,95.5,555.6,92.4z"/>
		</g>
		<g>
			<path fill="#FFFFFF" d="M168.5,92.4c-3.3,2-7.4,3.1-11.2,3.1c-7.2,0-12.9-3.1-12.9-13.3c0-9.2,4.6-12.3,12-12.3
				c4.7,0,8.5,1.4,11.2,3.5c1.1-3.9,2.6-7.6,3.6-11.2c-4.2-2.4-9-4.4-15.1-4.4c-14.2,0-24.9,9.5-24.9,25.1
				c0,13.2,10.3,25.1,25.2,25.1c6.1,0,11.7-2.2,15.7-4.3C170.9,99.6,169.5,95.5,168.5,92.4z"/>
		</g>
		<rect x="683" y="43.7" fill="none" width="19" height="24.7"/>
		<text transform="matrix(1 0 0 1 683 61.6416)" fill="#FFFFFF" font-family="'Helvetica-Bold'" font-size="25px">®</text>
	</g>
</g>
</svg>
