<?xml version="1.0" encoding="utf-8"?>
<!-- Generator: Adobe Illustrator 25.2.3, SVG Export Plug-In . SVG Version: 6.00 Build 0)  -->
<svg version="1.1" id="Layer_1" xmlns="http://www.w3.org/2000/svg" xmlns:xlink="http://www.w3.org/1999/xlink" x="0px" y="0px"
	 viewBox="0 0 171 83" enable-background="new 0 0 171 83" xml:space="preserve">
<path fill="#62C232" d="M129.3,74.6c-0.1,3.3-3.2,5.9-6.3,5c-3.2-0.9-5.6-4.6-5.4-7.7c0.1-3.2,2.9-5,6-4.3
	C127.1,68.1,129.3,71,129.3,74.6 M139.4,4.4c-3.6-0.7-9.9-0.3-13,0.1s-6.3,1.2-9.1,2.4c-2.8,1.2-3.1,1.6-3.2,2.5l-1.4,36.4l6.9,12.7
	l10.8,1.7l8.3-13.2l2.1-42.1L139.4,4.4z M124.6,54.2c-2.5-0.7-4-3-3.8-5.2c0-2.2,2.2-3.6,4.3-3.5c2.2,0.1,4,2.4,3.8,5
	C128.9,52.7,127.3,54.5,124.6,54.2"/>
<g>
	<g>
		<path fill="#FFFFFF" d="M51.6,59.4c0-5.8-2.6-11-9-14c5-3,7.2-7.4,7.2-12.4c0-9.9-6.5-17.4-23-17.4H3.6v61.8h24.2
			C44.9,77.4,51.6,70,51.6,59.4z M16.4,27.6L16.4,27.6l10.5-0.1c7.6,0,10.2,2.5,10.2,6.5c0,3.4-2.6,6.4-10.2,6.4H16.4V27.6z
			 M16.4,51.4L16.4,51.4L16.4,51.4h11.4c8.3,0,11,3.2,11,7.2c0,4.2-2.6,7-11,7H16.4V51.4z"/>
		<polygon fill="#FFFFFF" points="71.7,50.9 98.7,50.9 98.7,38.9 71.7,38.9 71.7,27.6 102.7,27.6 102.7,15.6 58.7,15.6 58.7,77.6 
			71.7,77.6 		"/>
	</g>
</g>
<rect x="149.3" y="3.9" fill="none" width="19" height="24.7"/>
<text transform="matrix(1 0 0 1 149.2714 21.8279)" fill="#FFFFFF" font-family="'Helvetica-Bold'" font-size="25px">®</text>
</svg>
